<svg width="400" height="100" viewBox="0 0 400 100" fill="none" xmlns="http://www.w3.org/2000/svg">
<path fill-rule="evenodd" clip-rule="evenodd" d="M386.827 52.9559H393.681V32.0271L374.834 16.2237L355.986 32.0271V52.9559H362.837L374.885 42.8102L386.827 52.9559ZM394.485 58.9356H384.631L374.834 50.661L364.98 58.9356H355.129C354.449 58.9402 353.775 58.809 353.147 58.5499C352.518 58.2907 351.948 57.9088 351.469 57.4264C350.99 56.944 350.612 56.3709 350.358 55.7406C350.103 55.1104 349.977 54.4356 349.986 53.7559L350.041 31.6542C350.041 30.2644 350.576 28.983 351.539 28.0237L351.753 27.8102L374.834 8.42712L398.18 28.0203C399.142 28.983 399.678 30.2644 399.678 31.6542L399.732 53.7559C399.732 55.1458 399.197 56.4271 398.234 57.4407C397.268 58.4576 395.878 58.9356 394.485 58.9356Z" fill="#00DEB6"/>
<path fill-rule="evenodd" clip-rule="evenodd" d="M204.017 37.2576C201.661 37.2576 199.41 37.6847 197.217 38.539C195.136 39.3325 193.253 40.5716 191.702 42.1695C191.211 41.5598 190.673 40.9886 190.095 40.461C189.398 39.8315 188.623 39.2938 187.79 38.861C186.839 38.3552 185.834 37.9605 184.793 37.6847C183.614 37.3661 182.329 37.2576 180.885 37.2576C178.475 37.2576 176.386 37.6847 174.617 38.5932C172.854 39.5017 171.353 40.6237 170.227 42.0102L169.854 38.1119H159.037V73.4576H170.336V54.4508C170.336 52.2102 170.98 50.339 172.315 48.8983C173.654 47.4576 175.366 46.7085 177.563 46.7085C179.492 46.7085 180.936 47.2983 181.902 48.417C182.864 49.5932 183.346 51.1966 183.346 53.3322V73.4576H194.271V54.4508C194.271 52.2102 194.915 50.339 196.251 48.8983C197.539 47.4576 199.302 46.7085 201.498 46.7085C203.427 46.7085 204.871 47.2983 205.837 48.417C206.8 49.5932 207.281 51.1966 207.281 53.3322V73.4576H218.58V51.6203C218.58 47.1898 217.349 43.722 214.834 41.1559C212.315 38.539 208.729 37.2576 204.017 37.2576ZM250.336 59.2034C249.963 60.322 249.424 61.339 248.62 62.2475C247.853 63.1465 246.904 63.8741 245.837 64.383C244.664 64.9293 243.382 65.2028 242.088 65.183C240.778 65.2022 239.48 64.9289 238.288 64.383C237.211 63.8886 236.259 63.1588 235.502 62.2475C234.767 61.334 234.189 60.3054 233.79 59.2034C233.403 58.068 233.204 56.8773 233.2 55.678C233.2 54.4508 233.414 53.3288 233.79 52.1525C234.163 51.0339 234.753 50.017 235.502 49.1661C236.251 48.3119 237.163 47.5627 238.288 47.0305C239.48 46.4846 240.778 46.2113 242.088 46.2305C243.478 46.2305 244.766 46.4949 245.837 47.0305C246.963 47.5627 247.871 48.2576 248.62 49.1661C249.369 50.0203 249.959 51.0339 250.336 52.1559C250.708 53.2746 250.871 54.4508 250.871 55.6814C250.871 56.9085 250.708 58.0814 250.336 59.2034ZM256.332 42.3831C254.617 40.6746 252.529 39.3424 250.122 38.3254C247.564 37.3195 244.837 36.8132 242.088 36.8339C239.142 36.8339 236.464 37.3119 234.054 38.3254C231.721 39.2551 229.592 40.6337 227.79 42.3831C226.071 44.105 224.691 46.1346 223.722 48.3661C222.75 50.6995 222.258 53.2046 222.275 55.7322C222.275 58.3492 222.759 60.8034 223.722 63.1017C224.685 65.3966 226.027 67.3729 227.79 69.0814C229.505 70.7898 231.593 72.1254 234.058 73.139C236.464 74.1559 239.197 74.6305 242.092 74.6305C244.98 74.6305 247.712 74.1559 250.122 73.139C252.529 72.122 254.617 70.7898 256.332 69.0814C258.044 67.3729 259.383 65.3966 260.349 63.1017C261.32 60.767 261.811 58.2607 261.793 55.7322C261.793 53.1153 261.312 50.661 260.349 48.3661C259.418 46.1263 258.053 44.0929 256.332 42.3831ZM289.959 38.061L281.553 61.2847L272.824 38.061H260.241L275.769 73.4068H286.481L302.278 38.061H289.959ZM311.702 51.9932C311.702 51.2475 311.861 50.5017 312.237 49.6983C312.586 48.8917 313.096 48.1649 313.736 47.5627C314.38 46.922 315.234 46.3898 316.197 45.9627C317.214 45.5356 318.339 45.3186 319.678 45.3186C320.966 45.3186 322.088 45.5356 323.051 45.9627C324.017 46.3898 324.766 46.922 325.407 47.5627C326.051 48.2068 326.532 48.9525 326.8 49.6983C327.122 50.5017 327.281 51.2475 327.281 51.9966H311.702V51.9932ZM337.939 57.122C337.939 54.1322 337.566 51.4068 336.759 48.9525C335.956 46.4441 334.834 44.3085 333.281 42.5458C331.726 40.7481 329.785 39.3241 327.603 38.3797C325.356 37.3627 322.732 36.8881 319.732 36.8881C316.732 36.8881 314.058 37.4203 311.698 38.4339C309.481 39.369 307.478 40.7461 305.811 42.4812C304.145 44.2162 302.849 46.2729 302.003 48.5254C301.151 50.7959 300.717 53.2019 300.722 55.6271C300.722 58.4542 301.203 61.017 302.115 63.3661C302.98 65.6407 304.354 67.6873 306.132 69.3492C307.898 71.0034 310.041 72.2847 312.556 73.2475C315.075 74.1525 317.912 74.6339 321.017 74.6339C323.373 74.6339 325.461 74.4203 327.281 73.9898C328.911 73.6359 330.506 73.1368 332.047 72.4983C333.386 71.9627 334.458 71.3797 335.315 70.7898C336.173 70.2034 336.759 69.7729 337.19 69.5627L332.529 62.7254C331.257 63.5552 329.914 64.2699 328.515 64.861C326.695 65.6644 324.285 66.0915 321.393 66.0915C318.393 66.0915 316.091 65.3966 314.376 63.9559C312.664 62.5119 311.807 60.8576 311.753 58.939H337.99L337.939 57.122ZM149.986 65.2881C149.129 65.661 148.166 65.8746 146.986 65.8746C145.488 65.8746 144.363 65.3932 143.668 64.4847C142.973 63.5763 142.597 62.2441 142.597 60.5356V46.6H152.075V38.0576H142.597V27.3797H131.298V38.0576H125.461V46.6H131.298V59.9458C131.298 62.1356 131.512 64.1661 131.993 65.9797C132.478 67.7966 133.227 69.3458 134.349 70.6237C135.523 71.9684 137.014 72.9975 138.688 73.617C140.454 74.3627 142.651 74.6847 145.275 74.6847C149.024 74.6847 152.556 73.5627 155.824 71.3729L152.237 64.0576C151.536 64.5509 150.78 64.9636 149.986 65.2881ZM21.7966 37.3661C19.1729 37.3661 17.0305 37.8983 15.3729 39.0203C13.7119 40.139 12.4237 41.2644 11.461 42.4915L11.0881 38.061H0.267792V73.4068H11.5661V55.8915C11.5661 53.0644 12.3695 50.9288 14.0305 49.3797C15.6915 47.8305 17.8305 47.0847 20.5085 47.0847C21.7966 47.0847 22.9152 47.1898 23.8814 47.4576L25.7017 37.8475C25.2515 37.6899 24.7855 37.5819 24.3119 37.5254C23.4776 37.4084 22.639 37.3551 21.7966 37.3661ZM28.7051 73.4068H40V38.061H28.7017V73.4068H28.7051ZM70.2034 57.6542C70.2034 59.9492 69.5593 61.6576 68.3288 62.7254C67.0983 63.7932 65.278 64.3288 62.9729 64.3288C60.5119 64.3288 58.6373 63.5831 57.3525 62.0847C56.0678 60.5932 55.4237 58.5593 55.4237 56C55.4237 54.7186 55.6407 53.4373 56.0136 52.261C56.3864 51.0881 57.0305 50.0746 57.8339 49.1661C58.6855 48.2659 59.7045 47.5405 60.8339 47.0305C62.0102 46.4949 63.4576 46.2305 65.0644 46.2305C66.2407 46.2305 67.2576 46.2814 67.9559 46.4441C68.7017 46.5492 69.4 46.7627 70.1491 47.0305V57.6542H70.2034ZM65.278 37.3153C62.0644 37.3153 59.1763 37.739 56.6 38.6475C54.0339 39.5559 51.7864 40.8373 49.9085 42.5458C48.0446 44.2212 46.5646 46.2795 45.5695 48.5797C44.5178 51.0429 43.9903 53.6981 44.0203 56.3763C44.0203 58.8305 44.3932 61.0712 45.1424 63.1559C45.8404 65.1591 46.9625 66.9881 48.4321 68.5179C49.9016 70.0478 51.6841 71.2424 53.6576 72.0203C55.7458 72.8712 58.0474 73.2441 60.6746 73.2441C64.583 73.2441 67.7424 72.2847 70.0983 70.3085V72.817C70.0983 75.4339 69.3458 77.4102 67.9017 78.6915C66.4542 79.9729 64.4203 80.6678 61.8508 80.6678C60.0069 80.6941 58.1684 80.4602 56.3898 79.9729C54.7588 79.5139 53.1927 78.8498 51.7288 77.9966L47.1797 85.6847C49.265 86.9895 51.5409 87.9616 53.9254 88.5661C56.3898 89.1559 59.2813 89.478 62.5458 89.478C68.383 89.478 72.9356 88.0881 76.3085 85.3119C79.6813 82.5356 81.3424 78.2102 81.3424 72.3898V39.9322C78.914 39.1149 76.4249 38.4904 73.8983 38.0644C71.2203 37.5831 68.3288 37.3186 65.278 37.3186V37.3153ZM109.346 37.2576C107.312 37.2576 105.278 37.6305 103.295 38.3254C101.315 39.0712 99.7085 40.0881 98.5322 41.478V23.1627H87.2847V73.4576H98.583V54.4508C98.583 53.3831 98.7458 52.4237 99.0678 51.461C99.3794 50.5659 99.8502 49.7344 100.458 49.0068C101.102 48.3119 101.851 47.7254 102.814 47.2983C103.78 46.8712 104.847 46.6542 106.027 46.6542C107.847 46.6542 109.349 47.2441 110.417 48.3661C111.542 49.539 112.078 51.1424 112.078 53.1695V73.3525H123.322V51.5153C123.322 46.8169 122.037 43.2373 119.522 40.8373C116.953 38.4305 113.576 37.2576 109.346 37.2576ZM38.5525 24.2847C37.9859 23.8076 37.332 23.445 36.6271 23.2169C35.904 22.9635 35.1425 22.8373 34.3763 22.8441C33.6305 22.8441 32.8237 22.9492 32.1288 23.2169C31.4102 23.4536 30.7389 23.8151 30.1458 24.2847C29.5593 24.7661 29.1288 25.3525 28.7559 26.0475C28.4038 26.8178 28.2212 27.6547 28.2203 28.5017C28.2203 29.4102 28.3797 30.2102 28.7559 30.9085C29.078 31.6 29.5593 32.1864 30.1458 32.6678C30.7356 33.1492 31.3797 33.522 32.1288 33.7356C32.878 33.9492 33.6271 34.1085 34.3763 34.1085C35.1288 34.1085 35.9288 34.0034 36.6271 33.7356C37.3423 33.5321 38.0011 33.1667 38.5525 32.6678C39.1424 32.1864 39.5695 31.6 39.8915 30.9051C40.2442 30.153 40.4271 29.3324 40.4271 28.5017C40.4271 27.5966 40.2678 26.7932 39.8915 26.0475C39.6018 25.3559 39.141 24.7493 38.5525 24.2847Z" fill="#262637"/>
</svg>
