<svg width="400" height="100" viewBox="0 0 400 100" fill="none" xmlns="http://www.w3.org/2000/svg">
<g clip-path="url(#clip0_149_555)">
<path d="M326.056 66.968C316.9 66.968 309.76 60.584 309.76 50C309.76 39.696 316.508 32.948 326.056 32.948C336.136 32.948 342.8 40.312 342.8 50.084C342.907 52.3176 342.547 54.5489 341.746 56.6362C340.944 58.7236 339.716 60.6214 338.142 62.2091C336.567 63.7969 334.68 65.0398 332.599 65.8591C330.519 66.6783 328.29 67.056 326.056 66.968ZM266.36 76.432H297.972V66.436H277.532V23.568H266.332V76.432H266.36ZM237.212 57C235.59 57.0678 233.971 56.7972 232.459 56.2056C230.947 55.6139 229.574 54.714 228.429 53.5632C227.283 52.4124 226.389 51.0357 225.805 49.5209C225.22 48.006 224.957 46.3861 225.032 44.764C224.974 43.1462 225.248 41.5337 225.839 40.0265C226.43 38.5193 227.324 37.1495 228.466 36.0022C229.608 34.8549 230.974 33.9545 232.478 33.3568C233.983 32.7592 235.594 32.4771 237.212 32.528C244.352 32.528 249.588 37.344 249.588 44.764C249.588 52.212 244.352 57 237.212 57ZM213.86 76.46H225.06V57.532C226.449 60.4158 228.641 62.8375 231.373 64.5063C234.105 66.1751 237.26 67.0201 240.46 66.94C251.464 66.94 260.704 57.84 260.704 44.764C260.704 31.688 251.464 22.504 240.432 22.504C233.684 22.504 228.112 25.864 225.032 31.912V23.512H213.832V76.432L213.86 76.46ZM180.876 67.164C171.552 67.164 164.272 60.444 164.272 50.168C164.272 39.808 171.552 32.808 180.876 32.808C190.2 32.808 197.312 39.808 197.312 50.168C197.312 60.472 190.2 67.164 180.876 67.164ZM180.96 77.524C196.948 77.524 208.596 66.408 208.596 50.168C208.596 33.956 196.948 22.532 180.96 22.532C164.944 22.532 153.072 33.956 153.072 50.168C153.072 66.408 164.944 77.524 180.96 77.524ZM120.928 67.164C111.632 67.164 104.408 60.444 104.408 50.168C104.408 39.808 111.632 32.808 120.928 32.808C130.252 32.808 137.448 39.808 137.448 50.168C137.448 60.472 130.252 67.164 120.928 67.164ZM121.012 77.524C137 77.524 148.648 66.408 148.648 50.168C148.648 33.956 137 22.532 121.012 22.532C105.024 22.532 93.152 33.956 93.152 50.168C93.152 66.408 105.024 77.524 121.012 77.524ZM47.344 76.432H90.744V66.436H59.356C59.636 58.568 65.292 56.468 71.676 54.284C80.44 51.288 90.604 47.452 90.604 27.544V23.568H47.484V33.48H78.732C78.452 40.9 72.936 42.86 66.692 44.96C57.872 47.984 47.372 51.792 47.372 72.4V76.432H47.344ZM324.04 77.496C327.794 77.6178 331.512 76.7347 334.81 74.9379C338.108 73.1412 340.867 70.496 342.8 67.276V76.432H354V23.568H342.8V32.64C340.861 29.4315 338.099 26.7999 334.8 25.0178C331.502 23.2356 327.787 22.3677 324.04 22.504C310.04 22.504 298.504 33.984 298.504 50C298.504 66.016 310.068 77.496 324.04 77.496Z" fill="#0000EE"/>
</g>
<defs>
<clipPath id="clip0_149_555">
<rect width="308" height="56" fill="white" transform="translate(46 22)"/>
</clipPath>
</defs>
</svg>
